<svg width="170" height="56" viewBox="0 0 170 56" fill="none" xmlns="http://www.w3.org/2000/svg">
<rect y="-0.00189209" width="170" height="56" rx="28" fill="#360490"/>
<path d="M42.8848 24.2737C42.809 23.6013 42.4965 23.0805 41.9473 22.7112C41.398 22.3371 40.7067 22.1501 39.8734 22.1501C39.2768 22.1501 38.7607 22.2448 38.3251 22.4342C37.8895 22.6188 37.551 22.8745 37.3095 23.2012C37.0727 23.5232 36.9544 23.8902 36.9544 24.3021C36.9544 24.6477 37.0349 24.946 37.1958 25.197C37.3616 25.4479 37.577 25.6586 37.8422 25.8291C38.112 25.9948 38.4009 26.1345 38.7086 26.2481C39.0164 26.357 39.3123 26.447 39.5964 26.518L41.0169 26.8873C41.4809 27.0009 41.9567 27.1548 42.4444 27.349C42.9321 27.5431 43.3843 27.7988 43.801 28.116C44.2176 28.4332 44.5538 28.8262 44.8095 29.295C45.0699 29.7637 45.2001 30.3248 45.2001 30.9782C45.2001 31.8021 44.987 32.5336 44.5609 33.1728C44.1395 33.812 43.5263 34.3163 42.7214 34.6856C41.9212 35.0549 40.9529 35.2396 39.8166 35.2396C38.7276 35.2396 37.7853 35.0668 36.9899 34.7211C36.1944 34.3755 35.5718 33.8854 35.122 33.2509C34.6722 32.6117 34.4236 31.8542 34.3762 30.9782H36.5779C36.6206 31.5038 36.791 31.9418 37.0893 32.2921C37.3923 32.6378 37.7782 32.8958 38.247 33.0663C38.7205 33.232 39.2389 33.3149 39.8024 33.3149C40.4226 33.3149 40.9743 33.2178 41.4572 33.0237C41.9449 32.8248 42.3284 32.5502 42.6078 32.1998C42.8871 31.8447 43.0268 31.4304 43.0268 30.9569C43.0268 30.526 42.9037 30.1733 42.6575 29.8987C42.416 29.6241 42.0869 29.3968 41.6703 29.2169C41.2583 29.0369 40.792 28.8783 40.2711 28.741L38.5524 28.2723C37.3876 27.955 36.4643 27.4886 35.7825 26.8731C35.1054 26.2576 34.7669 25.4432 34.7669 24.4299C34.7669 23.5919 34.9941 22.8603 35.4487 22.2353C35.9032 21.6103 36.5188 21.125 37.2953 20.7794C38.0718 20.429 38.9477 20.2538 39.9231 20.2538C40.908 20.2538 41.7768 20.4266 42.5297 20.7723C43.2872 21.1179 43.8838 21.5938 44.3194 22.1998C44.755 22.8011 44.9823 23.4924 45.0012 24.2737H42.8848ZM52.2473 35.2183C51.1915 35.2183 50.2824 34.9792 49.5201 34.5009C48.7625 34.018 48.1801 33.3527 47.7729 32.5052C47.3657 31.6577 47.1621 30.687 47.1621 29.5933C47.1621 28.4853 47.3704 27.5076 47.7871 26.66C48.2038 25.8078 48.7909 25.1425 49.5485 24.6643C50.306 24.1861 51.1986 23.947 52.226 23.947C53.0546 23.947 53.7933 24.1009 54.4419 24.4086C55.0906 24.7116 55.6138 25.1378 56.0115 25.687C56.414 26.2363 56.6531 26.8778 56.7289 27.6117H54.6621C54.5485 27.1004 54.2881 26.66 53.8809 26.2907C53.4784 25.9214 52.9386 25.7367 52.2615 25.7367C51.6697 25.7367 51.1512 25.893 50.7061 26.2055C50.2658 26.5133 49.9225 26.9536 49.6763 27.5265C49.4301 28.0947 49.307 28.767 49.307 29.5436C49.307 30.339 49.4277 31.0256 49.6692 31.6032C49.9107 32.1809 50.2516 32.6283 50.6919 32.9456C51.137 33.2628 51.6602 33.4214 52.2615 33.4214C52.664 33.4214 53.0286 33.348 53.3553 33.2012C53.6867 33.0497 53.9637 32.8343 54.1863 32.5549C54.4135 32.2756 54.5721 31.9394 54.6621 31.5464H56.7289C56.6531 32.2519 56.4235 32.8816 56.04 33.4356C55.6564 33.9896 55.1427 34.4252 54.4988 34.7424C53.8596 35.0597 53.1091 35.2183 52.2473 35.2183ZM63.595 35.2183C62.5723 35.2183 61.6797 34.9839 60.9174 34.5152C60.1551 34.0464 59.5633 33.3906 59.1419 32.5478C58.7205 31.705 58.5098 30.7202 58.5098 29.5933C58.5098 28.4616 58.7205 27.4721 59.1419 26.6245C59.5633 25.777 60.1551 25.1188 60.9174 24.6501C61.6797 24.1813 62.5723 23.947 63.595 23.947C64.6177 23.947 65.5102 24.1813 66.2725 24.6501C67.0349 25.1188 67.6267 25.777 68.0481 26.6245C68.4695 27.4721 68.6802 28.4616 68.6802 29.5933C68.6802 30.7202 68.4695 31.705 68.0481 32.5478C67.6267 33.3906 67.0349 34.0464 66.2725 34.5152C65.5102 34.9839 64.6177 35.2183 63.595 35.2183ZM63.6021 33.4356C64.265 33.4356 64.8142 33.2604 65.2498 32.91C65.6854 32.5597 66.0074 32.0933 66.2157 31.5109C66.4288 30.9285 66.5353 30.2869 66.5353 29.5862C66.5353 28.8902 66.4288 28.2509 66.2157 27.6686C66.0074 27.0814 65.6854 26.6103 65.2498 26.2552C64.8142 25.9001 64.265 25.7225 63.6021 25.7225C62.9345 25.7225 62.3805 25.9001 61.9402 26.2552C61.5046 26.6103 61.1802 27.0814 60.9672 27.6686C60.7588 28.2509 60.6547 28.8902 60.6547 29.5862C60.6547 30.2869 60.7588 30.9285 60.9672 31.5109C61.1802 32.0933 61.5046 32.5597 61.9402 32.91C62.3805 33.2604 62.9345 33.4356 63.6021 33.4356ZM71.0506 34.9981V24.089H73.1032V25.822H73.2168C73.4157 25.2348 73.766 24.7732 74.2679 24.437C74.7746 24.0961 75.3475 23.9257 75.9867 23.9257C76.1193 23.9257 76.2755 23.9304 76.4554 23.9399C76.6401 23.9493 76.7845 23.9612 76.8887 23.9754V26.0066C76.8034 25.983 76.6519 25.9569 76.4341 25.9285C76.2163 25.8954 75.9985 25.8788 75.7807 25.8788C75.2788 25.8788 74.8314 25.9853 74.4384 26.1984C74.0501 26.4067 73.7424 26.6979 73.5151 27.072C73.2878 27.4413 73.1742 27.8627 73.1742 28.3362V34.9981H71.0506ZM83.0375 35.2183C81.9627 35.2183 81.037 34.9886 80.2605 34.5294C79.4887 34.0653 78.8921 33.4143 78.4707 32.5762C78.054 31.7334 77.8457 30.7462 77.8457 29.6146C77.8457 28.4972 78.054 27.5123 78.4707 26.66C78.8921 25.8078 79.4792 25.1425 80.2321 24.6643C80.9896 24.1861 81.8751 23.947 82.8883 23.947C83.5038 23.947 84.1004 24.0488 84.6781 24.2524C85.2557 24.456 85.7742 24.7756 86.2335 25.2112C86.6928 25.6468 87.055 26.2126 87.3201 26.9086C87.5853 27.5999 87.7179 28.4403 87.7179 29.4299V30.1828H79.046V28.5919H85.6369C85.6369 28.0331 85.5233 27.5384 85.296 27.1075C85.0687 26.6719 84.7491 26.3286 84.3372 26.0777C83.93 25.8267 83.4518 25.7012 82.9025 25.7012C82.3059 25.7012 81.7851 25.848 81.34 26.1416C80.8997 26.4304 80.5588 26.8092 80.3173 27.2779C80.0806 27.742 79.9622 28.2462 79.9622 28.7907V30.0336C79.9622 30.7628 80.09 31.3831 80.3457 31.8944C80.6061 32.4058 80.9683 32.7964 81.4324 33.0663C81.8964 33.3314 82.4385 33.464 83.0588 33.464C83.4612 33.464 83.8282 33.4072 84.1596 33.2936C84.4911 33.1752 84.7775 33 85.019 32.768C85.2605 32.536 85.4451 32.2495 85.573 31.9086L87.5829 32.2708C87.4219 32.8627 87.1331 33.3812 86.7164 33.8262C86.3045 34.2666 85.786 34.6099 85.161 34.8561C84.5408 35.0975 83.8329 35.2183 83.0375 35.2183Z" fill="white"/>
<path d="M106.632 34.9926H108.485V33.6695C109.367 33.5107 110.125 33.1667 110.761 32.6374C111.396 32.1082 111.713 31.3231 111.713 30.2823C111.713 29.5413 111.501 28.8621 111.078 28.2447C110.655 27.6272 109.808 27.0891 108.538 26.6305C107.479 26.2776 106.747 25.9689 106.341 25.7043C105.936 25.4396 105.733 25.078 105.733 24.6193C105.733 24.1606 105.896 23.799 106.222 23.5343C106.549 23.2697 107.02 23.1374 107.638 23.1374C108.202 23.1374 108.644 23.2741 108.961 23.5476C109.279 23.821 109.508 24.1606 109.649 24.5664L111.343 23.8784C111.149 23.2609 110.791 22.7228 110.271 22.2641C109.751 21.8055 109.173 21.5497 108.538 21.4967V20.1736H106.685V21.4967C105.803 21.6908 105.115 22.0789 104.621 22.6611C104.127 23.2433 103.88 23.896 103.88 24.6193C103.88 25.4485 104.123 26.1189 104.608 26.6305C105.093 27.1421 105.856 27.5831 106.897 27.9536C108.008 28.3593 108.78 28.721 109.212 29.0385C109.645 29.3561 109.861 29.7707 109.861 30.2823C109.861 30.8645 109.653 31.2923 109.239 31.5657C108.824 31.8392 108.326 31.9759 107.744 31.9759C107.162 31.9759 106.646 31.7951 106.196 31.4334C105.746 31.0717 105.415 30.5293 105.203 29.806L103.457 30.494C103.704 31.3408 104.088 32.0244 104.608 32.5448C105.128 33.0653 105.803 33.4225 106.632 33.6166V34.9926ZM107.585 38.1681C106.121 38.1681 104.745 37.8903 103.457 37.3345C102.169 36.7788 101.049 36.0246 100.096 35.072C99.1435 34.1193 98.3893 32.9991 97.8336 31.7113C97.2779 30.4234 97 29.0474 97 27.5831C97 26.1188 97.2779 24.7428 97.8336 23.455C98.3893 22.1671 99.1435 21.0469 100.096 20.0942C101.049 19.1416 102.169 18.3874 103.457 17.8317C104.745 17.276 106.121 16.9981 107.585 16.9981C109.049 16.9981 110.425 17.276 111.713 17.8317C113.001 18.3874 114.121 19.1416 115.074 20.0942C116.027 21.0469 116.781 22.1671 117.336 23.455C117.892 24.7428 118.17 26.1188 118.17 27.5831C118.17 29.0474 117.892 30.4234 117.336 31.7113C116.781 32.9991 116.027 34.1193 115.074 35.072C114.121 36.0246 113.001 36.7788 111.713 37.3345C110.425 37.8903 109.049 38.1681 107.585 38.1681Z" fill="white"/>
<path d="M133.361 20.4527V34.9981H131.159V22.6544H131.074L127.594 24.9271V22.8248L131.223 20.4527H133.361Z" fill="white"/>
</svg>
